<svg width="71" height="69" viewBox="0 0 71 69" fill="none" xmlns="http://www.w3.org/2000/svg">
<path d="M66.0145 29.955C65.7427 22.2105 62.6065 14.9685 57.0996 9.46156C51.3275 3.68837 43.6561 0.51001 35.5 0.51001C19.0269 0.51001 5.56686 13.6217 4.98666 29.955C2.47282 31.0722 0.713348 33.5882 0.713348 36.5126V44.5688C0.713348 48.5249 3.93165 51.7443 7.88879 51.7443C10.4492 51.7443 12.5315 49.662 12.5315 47.1015V33.9787C12.5315 31.5747 10.6877 29.6145 8.34363 29.3815C9.20894 15.1515 21.0548 3.83813 35.5 3.83813C42.7686 3.83813 49.6035 6.67148 54.7477 11.8156C59.4714 16.5394 62.236 22.6964 62.652 29.3826C60.3101 29.6178 58.4696 31.5769 58.4696 33.9787V47.1004C58.4696 49.5244 60.3423 51.4969 62.7141 51.7021V55.018C62.7141 58.7522 59.6755 61.7897 55.9414 61.7897H50.9259C50.6796 61.0863 50.2935 60.4362 49.7522 59.8971C48.8036 58.9441 47.539 58.4194 46.1922 58.4194H41.0225C40.2803 58.4194 39.5681 58.5769 38.9158 58.8809C37.1363 59.6985 35.987 61.4935 35.987 63.4537C35.987 64.8005 36.5118 66.0652 37.4625 67.0115C38.4132 67.9644 39.6779 68.4892 41.0225 68.4892H46.1922C48.3355 68.4892 50.2248 67.1036 50.9292 65.1178H55.9414C61.5115 65.1178 66.0422 60.5871 66.0422 55.018V51.1097C68.5405 49.9859 70.2867 47.4787 70.2867 44.5666V36.5103C70.2867 33.5882 68.5272 31.0722 66.0145 29.955ZM9.20229 33.9787V47.1004C9.20229 47.8249 8.61321 48.415 7.88768 48.415C5.76655 48.415 4.04036 46.6889 4.04036 44.5677V36.5114C4.04036 34.3892 5.76655 32.6641 7.88768 32.6641C8.61321 32.6641 9.20229 33.2543 9.20229 33.9787ZM47.8618 63.8109C47.6965 64.5942 46.9931 65.1633 46.1911 65.1633H41.0214C40.5665 65.1633 40.1394 64.9858 39.8133 64.6596C39.4916 64.339 39.314 63.9108 39.314 63.4559C39.314 62.7914 39.7034 62.1846 40.3136 61.9039C40.531 61.8019 40.7696 61.7497 41.0214 61.7497H46.1911C46.6459 61.7497 47.073 61.9261 47.3981 62.2523C47.7198 62.5729 47.8973 63.0011 47.8973 63.4559C47.8984 63.578 47.8851 63.7 47.8618 63.8109ZM66.9586 44.5677C66.9586 46.6889 65.2324 48.415 63.1113 48.415C62.3868 48.415 61.7966 47.826 61.7966 47.1004V33.9787C61.7966 33.2543 62.3857 32.6641 63.1113 32.6641C65.2324 32.6641 66.9586 34.3903 66.9586 36.5114V44.5677Z" fill="#E1A24F"/>
<path d="M36.3609 52.0915C37.8308 52.0915 39.1055 51.0975 39.4616 49.6697L39.7323 48.5858C40.9759 48.2142 42.1585 47.6806 43.2634 46.9917L44.2086 47.4964C45.5132 48.192 47.1096 47.9102 48.0936 46.8075L49.2607 45.5051C50.2447 44.4057 50.349 42.786 49.5136 41.5657L48.878 40.6405C49.1664 40.0159 49.4093 39.3714 49.6068 38.7135L50.6796 38.4517C52.1162 38.1033 53.1191 36.8265 53.1191 35.3499L53.1202 33.6015C53.1202 32.1238 52.1184 30.8469 50.6829 30.4975L49.6057 30.2346C49.436 29.6666 49.2307 29.1096 48.9922 28.5661L49.6412 27.6708C50.5065 26.4749 50.4455 24.8541 49.4881 23.727L48.3554 22.3935C47.3981 21.2686 45.8083 20.9435 44.4882 21.6081L43.4964 22.1051C42.3249 21.344 41.0657 20.7616 39.73 20.3633L39.4682 19.2917C39.1199 17.8561 37.843 16.8533 36.3653 16.8533H34.618C33.1404 16.8533 31.8646 17.855 31.514 19.2906L31.2511 20.3667C30.0175 20.7361 28.846 21.2653 27.7499 21.9453L26.7703 21.4283C25.4624 20.7383 23.866 21.0301 22.8875 22.1372L21.7293 23.4452C20.7498 24.5512 20.6543 26.172 21.4975 27.3857L22.1265 28.2909C21.8347 28.9199 21.5895 29.5678 21.3899 30.2312L20.347 30.4797C18.9104 30.8225 17.9009 32.0928 17.892 33.5704L17.882 35.3166C17.8731 36.7943 18.8683 38.0767 20.3027 38.4362L21.3865 38.7068C21.5574 39.2771 21.7626 39.8362 22.0011 40.3809L21.3666 41.2462C20.4935 42.4377 20.5478 44.0596 21.4986 45.19L22.6235 46.5302C23.5753 47.6584 25.164 47.989 26.4863 47.3367L27.4892 46.8408C28.6607 47.6029 29.9221 48.1865 31.2589 48.5858L31.5074 49.6264C31.8502 51.0653 33.1215 52.0748 34.5981 52.0815L36.3476 52.0915H36.3609ZM34.7201 48.7556L34.2642 46.843C34.1166 46.2229 33.6285 45.7425 33.0072 45.6049C31.4142 45.2499 29.9431 44.5699 28.6363 43.5837C28.1326 43.2043 27.4604 43.1444 26.8957 43.4206L25.1018 44.3092L24.1123 43.1299L25.2738 41.5446C25.6499 41.031 25.7009 40.3476 25.4036 39.7841C24.9354 38.8954 24.5871 37.9491 24.3685 36.9707C24.231 36.355 23.7595 35.8713 23.1471 35.7182L21.209 35.2334L21.2179 33.6947L23.1294 33.2398C23.7495 33.0923 24.2299 32.6042 24.3685 31.9829C24.6026 30.929 24.9887 29.9128 25.5134 28.9643C25.8196 28.4096 25.7852 27.7296 25.4235 27.2093L24.2887 25.5741L25.3082 24.4214L27.0732 25.3522C27.6334 25.6484 28.3124 25.6007 28.8249 25.2291C30.0829 24.3194 31.4863 23.687 32.995 23.3498C33.613 23.2111 34.0978 22.7352 34.2475 22.1206L34.7212 20.1825H36.2588L36.7314 22.1184C36.8812 22.7341 37.3682 23.2111 37.9861 23.3487C39.577 23.7026 41.0458 24.3815 42.3537 25.3677C42.8596 25.7493 43.5374 25.8093 44.1021 25.5264L45.886 24.6311L46.8822 25.8037L45.7118 27.4167C45.3402 27.9293 45.2925 28.6082 45.5875 29.1684C46.0557 30.0582 46.4029 31.0045 46.6215 31.9785C46.7591 32.5964 47.2361 33.0834 47.8507 33.2332L49.7888 33.7069L49.7876 35.2456L47.8518 35.7171C47.2361 35.8668 46.7602 36.3528 46.6226 36.9718C46.3885 38.0201 46.0069 39.0286 45.4888 39.9693C45.1848 40.5207 45.2181 41.1963 45.5742 41.7155L46.708 43.3662L45.6807 44.5122L43.9479 43.5859C43.3854 43.2852 42.701 43.3318 42.1862 43.7068C40.9204 44.6254 39.5093 45.2633 37.9917 45.6027C37.3771 45.7403 36.8923 46.2129 36.7403 46.8241L36.2555 48.7622L34.7201 48.7556Z" fill="#E1A24F"/>
<path d="M42.154 34.4767C42.154 30.8058 39.1676 27.8193 35.4967 27.8193C31.8258 27.8193 28.8393 30.8058 28.8393 34.4767C28.8393 38.1476 31.8258 41.1329 35.4967 41.1329C39.1676 41.1329 42.154 38.1476 42.154 34.4767ZM35.4967 37.8048C33.6607 37.8048 32.1674 36.3116 32.1674 34.4767C32.1674 32.6418 33.6607 31.1475 35.4967 31.1475C37.3316 31.1475 38.8259 32.6407 38.8259 34.4767C38.8259 36.3127 37.3316 37.8048 35.4967 37.8048Z" fill="#E1A24F"/>
</svg>
